<svg preserveAspectRatio="none" overflow="visible" style="display: block;" width="16" height="16" viewBox="0 0 16 16" fill="none" xmlns="http://www.w3.org/2000/svg">
<g id="icon">
<path id="glyph" d="M12.6667 8.39333V6.66666C12.6667 4.52 11.2134 2.71333 9.24004 2.17333C9.0467 1.68 8.56671 1.33333 8.00004 1.33333C7.43337 1.33333 6.96004 1.68 6.76004 2.17333C4.78671 2.72 3.33337 4.52666 3.33337 6.66666V8.39333L2.19337 9.53333C2.13158 9.59563 2.0827 9.6695 2.04952 9.75073C2.01635 9.83195 1.99953 9.91893 2.00004 10.0067V11.34C2.00004 11.7067 2.30004 12.0067 2.6667 12.0067H13.3334C13.7 12.0067 14 11.7067 14 11.34V10.0067C14 9.82667 13.9267 9.66 13.8067 9.53333L12.6667 8.39333ZM3.76004 2.2L2.82004 1.26C2.13497 1.93844 1.59177 2.74644 1.22207 3.63691C0.852381 4.52737 0.663591 5.48251 0.666705 6.44667H2.00004C2.00004 4.84666 2.6267 3.34 3.76004 2.20666V2.2ZM12.24 2.2C13.3734 3.33333 14 4.84 14 6.44H15.3334C15.3334 4.48 14.5734 2.64 13.1867 1.25333L12.2467 2.19333L12.24 2.2ZM8.00004 14.6667C8.87337 14.6667 9.6067 14.1133 9.88004 13.3333H6.12004C6.39337 14.1133 7.12671 14.6667 8.00004 14.6667Z" fill="#9E51F7"/>
</g>
</svg>
